<?xml version="1.0" encoding="UTF-8"?>
<svg id="_レイヤー_2" data-name="レイヤー 2" xmlns="http://www.w3.org/2000/svg" viewBox="0 0 379.98 143.7">
  <defs>
    <style>
      .cls-1 {
        fill: #f8eee0;
      }
    </style>
  </defs>
  <g id="_レイヤー_1のコピー_3" data-name="レイヤー 1のコピー 3">
    <g>
      <path class="cls-1" d="M342.17,14.73c6.3-.86,11.22,2.79,17.51-.91.64,2.02-2.21,2.92-3.51,3.37-3.48,1.22-6.65.81-9.94,2.06-4.91,10.11,8.22,10.2,14.44,11.55,2.09.45,3.85,1.95,5.99,2.31,4.2.7,9.16-.37,13.33,1.44.14,4.26-28.73-4.5-31.36.93l14.74.47c-.11,1.3-4.15,1.61-5.18,1.72-2.88.28-5.77.06-8.64.12l4.57,5.07-6.41,4.59,7.37,8.75c-2.87,2.52-9.8-9.04-13.81-4.14,3.54,4.55,8.53,7.61,12.63,11.31,1,.9,2.58,1,2.1,2.96-6.98-3.96-14.07-9.75-22.12-11.04l9.22,4.61-.47,1.84c-1.28-.05-5.82-4.28-5.97-.49l16.59,13.36c-4.02.99-6.11-4.03-8.33-5.03-3.64-1.65-2.91-1.08-6.2-3.27-3.48-2.32-12.44-10.92-13.94-3.25-.18.9,1.62,2.05-.58,3.25-2.5-4.69-10.6.96-7.24,2.79,3.84-.26,5.05,3.65,7.49,5.51,7.48,5.73,17.86,9.77,19.57,20.27-9.62-8.89-18.47-19.95-31.87-22.98l.06,4.55c-1.01-.35-4.97-5.54-5.99-4.6-2.11,1.95,1.44,4.82,2.75,5.99,4.18,3.72,10.98,6.65,15.13,10.68,3.46,3.36,6.47,8.2,7.93,12.8-.65.68-5.34-3.32-6.1-4.04-2.35-2.23-4.23-6.02-5.9-7.46-4.67-4.02-15.83-8.23-21.7-10.58-3.24-.05,1.24,1.94,2.21,3.34,1.58,2.29,3.8,5.83,3.82,8.61-2.03-1.31-2.56-4.27-4.56-6.02-1.92-1.68-3.83-2.65-6.46-2.24-2.62,8.32,7.17,6.2,9.66,12.86l3.21-1.83c-1.77,7.93,11.07,7.94,12.91,14.73l-16.52-8.83c-4.86-4.49-9.97-10.35-16.69-11.96-.69-.17-6.19-.61-6.42-.39-2.23,2.1,1.56,5.33,1.81,7.37-.28.31-6.12-4.24-6.92-4.6-2.47-1.08-.46,2.15-.65,2.6-.05.12-2.09.47-1.68,1.97l-6.42-1.39,2.4,6.85,15.13,26.79c-4.01,3.09-11.9-14.25-13.43-16.51-1.54-2.26-8.72-11.65-10.58-12.49-1.2-.54-3.88.45-5.49-.46-.52,7.36,7.22,9.42,9.21,15.65-2.02,1.92-10.63-11.97-14.75-9.67,4.95,4.61,8.61,11.42,13.8,15.69,3.26,2.68,8.01,3.85,10.17,7.8-2.52-.6-8.12-2.36-9.87-3.95-1.17-1.07-2.27-3.99-3.94-5.73-4.56-4.72-9.65-8.74-14.33-13.33l-1.95,1.88c-5.03,1.13-10.12-7.24-15.1-6.49-.95.9,9.54,21.03,10.91,23.64,2.91,5.51,8.09,9.53,6.6,16.89-8.68-7.79-11.05-21.01-18.63-30.26l-7.18-1.05c-1.83,1.67,11.26,13.83,9.21,16.57l-2.75.45c4.41,5.24,8.79,9.71,9.2,17.06-3.34-2.84-6.79-5.91-9.7-9.19-4.98-5.62-8.33-9.38-13.72-14.85-2.47-2.5-3.44-6.19-7.07-8.6-3.97-2.64-6.7-1.99-10.99-3.29.03,2.37,1.93,3.76,2.71,6.04.64,1.88,4.65,14.12.52,13.3-2.76-.55-4.61-10.76-5.59-12.85-2.18-4.65-10.01-9.89-15.17-6.95l2.32,3.21c-.62,3.17,6.08,17.06,5.02,18.42-2.04,2.62-5.6-2.73-5.97-2.72-1.28,2.79-3.54,3.08-5.98,4.59-.51-9.8-2.03-16.23-8.5-23.75-7.59.04-18.16-2.2-22.4,5.3l-1.39-5.51-2.22.95c-2.73-4.8-6.9-.95-7,3.65l-1.37-1.83c-4.16,2.45-1.9,6.52-2.68,9.22-.58,1.98-3.1,4.21-3.97,7.16-1.42,4.79-.65,5.98-2.78,11.05-.58,1.37.53,2.53-2.09,2.04,1.09-2.1,3.19-14.15.44-14.73-.43-.09-5.32,3.44-5.75,3.95-.99,1.15-.26,6.39-3.93,4.78.93-1.49.51-4.71,1.15-5.76.35-.57,2-.76,2.64-1.54.75-.91-.1-2.41.73-3.76,1.83-2.98,12.28-16.23,10.72-18.91-3-3.44-15.42-7.45-18.8-4.4-.7.63,1.04,3.37-1.96,2.59,3.07-11.13-12.9.69-10.29-8.65l-1.29-1.39c-3.03,1.17-8.72-.6-11.67-1.95-.94-.43-1.09-2-2.91-2.84-3.93-1.79-9.64-1.75-12.88-2.81-1.44-.47-1.42-2.66-3.1-3.36-15.31-6.35-30.19-7.89-46.75-6.54-3.34.27-8.17,3.35-11.25.91-4.63-7,3.88-15.59,10.46-17.36,9.37-2.53,10.67-.52,18.28.64,25.55,3.89,42.35,7.17,67.28,14.78,45.59,13.9,86.16,19.57,133.43,6.21,38.93-11,78.24-37.77,90.18-78.03,4.91.51,7.15,6.41,10.39,8.51,2.34,1.51,3.62.75,5.3,1.3,1.37.45,2.19,2.5,5.52,1.69v3.24Z"/>
      <path class="cls-1" d="M128.22,119.75c6.77.24.62,14.64-3.22,13.82-2.08-1.44-.8-1.43-.61-2.41.78-4.05,2.78-7.52,3.83-11.41Z"/>
      <path class="cls-1" d="M137.23,114.04c-.43.73-5.11,2.35-4.42,5.71-4.65-3.38.51-8.6,2.79-11.97,1.4-.77,2.62,4.58,1.63,6.26Z"/>
      <path class="cls-1" d="M197.37,128.04c2.18,4.78,2.55,8.62,1.85,13.81l-4.62-11.54,2.77-2.27Z"/>
      <path class="cls-1" d="M172.47,132.64c-.28,4.34,6.21,8.56-.91,11.06.49-1.9-1.6-3.95-1.68-5.23-.08-1.15,1.23-1.84,1.41-2.75.34-1.68-2.21-3.57,1.18-3.08Z"/>
      <path class="cls-1" d="M100.54,111.46l-6.44-3.24c.93-4.55,3.27,2.53,5.07-.44,1.25-1.95-3.08-5.54.93-6.45,4.42-1.01-.96,8.13.44,10.13Z"/>
      <path class="cls-1" d="M274.84,123.43c-4.51.64-7.42-3.88-9.22-7.36,2.49-.31,2.57,2.39,4.25,3.57s5.31.71,4.96,3.78Z"/>
    </g>
  </g>
</svg>