<?xml version="1.0" encoding="UTF-8"?>
<svg id="_レイヤー_2" data-name="レイヤー 2" xmlns="http://www.w3.org/2000/svg" viewBox="0 0 23.35 23.35">
  <defs>
    <style>
      .cls-1 {
        fill: #0b1632;
      }
    </style>
  </defs>
  <g id="layer">
    <g>
      <g>
        <path class="cls-1" d="M1.65.85c-.32,0-.43.64-.07.64,1.52.02,2.91.45,4.1,1.18-.34,1.96,1.53,3.89,2.91,5.03.17.14.33-.25.18-.37-1.2-.98-2.95-2.74-2.79-4.44,1.77,1.2,3.06,3.09,3.54,5.34.09.42.59.16.52-.18C9.15,3.95,5.96.91,1.65.85Z"/>
        <path class="cls-1" d="M8.75,2.09c-.21-.17-1.65-.95-1.11-1.47.33-.31,1.19.05,1.49.21.78.41,1.26,1.14,1.59,1.94.09.21.36-.06.29-.24-.47-1.15-1.47-2.38-2.84-2.37-.58,0-1.13.31-.97.96.11.45.59.74.92,1,1.01.79,1.71,1.64,2.1,2.88.38,1.2.51,2.53.38,3.78-.03.25.3.14.32-.07.18-1.73-.09-3.71-.98-5.22-.32-.54-.72-1-1.21-1.4Z"/>
        <path class="cls-1" d="M13.31.4c.71-.24,1.86.25,1.09,1.08-.43.46-1.06.59-1.66.61-.15,0-.21.31-.04.3.87-.03,2.12-.43,2.26-1.46.11-.86-.77-1.02-1.45-.88-1.87.39-2.42,2.91-2.49,4.52,0,.2.24.18.25,0,.03-.82.19-1.67.49-2.43.29-.74.75-1.47,1.54-1.74Z"/>
        <path class="cls-1" d="M17.67,1.87c.82-1.53-1.2-2.57-1.23-.57-.03,2-4.32,3.61-4.32,3.61,2.02.05,4.73-1.5,5.55-3.03Z"/>
        <path class="cls-1" d="M21.55.23c-2.35.22-4.59,3.72-4.59,3.72,3.61-3.34,4.62-2.27,5.63-2.19,1.01.08,1.31-1.75-1.04-1.53Z"/>
      </g>
      <g>
        <path class="cls-1" d="M.85,1.65c0-.32.64-.43.64-.07.02,1.52.45,2.91,1.18,4.1,1.96-.34,3.89,1.53,5.03,2.91.14.17-.25.33-.37.18-.98-1.2-2.74-2.95-4.44-2.79,1.2,1.77,3.09,3.06,5.34,3.54.42.09.16.59-.18.52C3.95,9.15.91,5.96.85,1.65Z"/>
        <path class="cls-1" d="M2.09,8.75c-.17-.21-.95-1.65-1.47-1.11-.31.33.05,1.19.21,1.49.41.78,1.14,1.26,1.94,1.59.21.09-.06.36-.24.29-1.15-.47-2.38-1.47-2.37-2.84,0-.58.31-1.13.96-.97.45.11.74.59,1,.92.79,1.01,1.64,1.71,2.88,2.1,1.2.38,2.53.51,3.78.38.25-.03.14.3-.07.32-1.73.18-3.71-.09-5.22-.98-.54-.32-1-.72-1.4-1.21Z"/>
        <path class="cls-1" d="M.4,13.31c-.24.71.25,1.86,1.08,1.09.46-.43.59-1.06.61-1.66,0-.15.31-.21.3-.04-.03.87-.43,2.12-1.46,2.26-.86.11-1.02-.77-.88-1.45.39-1.87,2.91-2.42,4.52-2.49.2,0,.18.24,0,.25-.82.03-1.67.19-2.43.49-.74.29-1.47.75-1.74,1.54Z"/>
        <path class="cls-1" d="M1.87,17.67c-1.53.82-2.57-1.2-.57-1.23s3.61-4.32,3.61-4.32c.05,2.02-1.5,4.73-3.03,5.55Z"/>
        <path class="cls-1" d="M.23,21.55c.22-2.35,3.72-4.59,3.72-4.59-3.34,3.61-2.27,4.62-2.19,5.63.08,1.01-1.75,1.31-1.53-1.04Z"/>
      </g>
    </g>
  </g>
</svg>