<?xml version="1.0" encoding="UTF-8"?>
<svg id="_レイヤー_2" xmlns="http://www.w3.org/2000/svg" version="1.1" viewBox="0 0 71 35">
  <!-- Generator: Adobe Illustrator 29.0.0, SVG Export Plug-In . SVG Version: 2.1.0 Build 186)  -->
  <defs>
    <style>
      .st0 {
        fill: #0b1632;
      }
    </style>
  </defs>
  <g id="_レイヤー_1-2">
    <path class="st0" d="M68.9,26.9h-6.4c-3.4,3.8-6.8,6.4-10.1,7.9-1.2.2-2.1.2-2.7.2-1.7,0-3.4-.3-5.3-.9l-1.7.7h-1.6c-4.5,0-6.7-1.5-6.7-4.8s0-.4,0-.7c-1.7-.2-3-.8-3.8-1.6s-1.3-2-1.3-3.4.2-1.4.5-2.2c-1.3-.4-2.3-.9-3-1.7-.7-.8-1-1.8-1-2.9s.2-1.6.6-2.3c.4-.6.9-1.2,1.7-1.6l-1.6-.4-16.2-.2c-3.5,0-6.1-.4-7.8-1.2C.9,11,0,9.9,0,8.3s.8-3.2,2.5-3.9c1.7-.8,4.6-1.1,8.8-1.1l18.3-.4,1.8-1.7L43.9,0c5.7,1.6,10.8,3.6,15.2,5.8h9.6c1.6,3.4,2.4,7,2.4,10.8s-.7,6.8-2.2,10.2h0ZM27.4,5l-16.4.4c-5.8,0-8.8,1-8.8,2.9s.9,1.5,2.7,1.9c1.8.4,4.5.6,8.1.6h10.2c-.3-.2-.7-.6-1.1-1.1l5.2-4.8h0ZM67.3,24.5c.9-2.8,1.4-5.5,1.4-8.1s-.5-5.6-1.6-8.4h-8.2c-7.6-3.1-12.7-4.9-15.3-5.7l-11.4,1-7,6.5c1.3,1.2,2.8,1.8,4.5,1.8,2.6,0,5.1-1.3,7.6-4,2.7,1.6,5.5,2.3,8.5,2.3h.8s0,2.2,0,2.2h-1c-2.7,0-5.2-.6-7.7-1.8-1.8,1.4-3.4,2.3-4.9,2.9h4.1c.8-.4,1.6-.7,2.4-.9.8-.2,1.5-.3,2.3-.3,3.4,0,6.2,2,8.2,6l-3.1,1.4c2,.6,3.8,2.3,5.4,5.1l-2.8,1.2c1.7,1.4,2.9,3,3.6,4.8l-5.6,2.4c1.5.2,2.5.3,3,.3s.8,0,1.6-.2c3.5-2,6.6-4.8,9.2-8.3,0,0,6.1,0,6.1,0ZM46.9,16.9c-1.1-1.9-2.8-2.9-5.1-2.9s-1.3.1-2,.4c-.7.2-1.3.6-2,1h-5.8c-1.2,0-2.1.2-2.8.5-.6.3-.9.9-.9,1.5s.5,1.7,1.3,2.2c.9.5,2.2.7,4,.7h4.7s8.5-3.5,8.5-3.5h0ZM49,23.3c-1-1.6-2.8-2.5-5.2-2.9l-4.7,2.1h-6.6c-.5.7-.7,1.3-.7,1.8,0,.9.4,1.6,1.1,2.1.7.5,1.8.7,3.3.7h4.1c0-.1,8.7-3.9,8.7-3.9h0ZM50,29.2c-.7-.9-1.6-1.7-2.9-2.6l-6,2.7h-4.4c0,2.2,1.4,3.4,4.2,3.4h1.8s7.4-3.5,7.4-3.5h0Z"/>
  </g>
</svg>