<?xml version="1.0" encoding="UTF-8"?>
<svg id="_レイヤー_2" xmlns="http://www.w3.org/2000/svg" version="1.1" viewBox="0 0 71 35">
  <!-- Generator: Adobe Illustrator 29.0.0, SVG Export Plug-In . SVG Version: 2.1.0 Build 186)  -->
  <defs>
    <style>
      .st0 {
        fill: #0b1632;
      }
    </style>
  </defs>
  <g id="_レイヤー_1-2">
    <path class="st0" d="M0,16.6c0-3.9.8-7.5,2.4-10.8h9.6C16.4,3.6,21.5,1.6,27.2,0l12.4,1.1,1.8,1.7,18.3.4c4.2,0,7.2.4,8.8,1.1,1.7.8,2.5,2,2.5,3.9s-.9,2.8-2.6,3.6-4.4,1.2-7.8,1.2l-16.2.2-1.6.4c.8.4,1.3,1,1.7,1.6s.6,1.4.6,2.3-.3,2.1-1,2.9c-.7.8-1.7,1.3-3,1.7.3.8.5,1.6.5,2.2,0,1.4-.4,2.6-1.3,3.4s-2.1,1.4-3.8,1.6c0,.3,0,.6,0,.7,0,3.2-2.2,4.8-6.7,4.8h-1.6c0,0-1.7-.8-1.7-.8-1.9.6-3.6.9-5.3.9s-1.5,0-2.7-.2c-3.3-1.5-6.6-4.1-10.1-7.9H2.2c-1.4-3.4-2.2-6.8-2.2-10.2h0ZM9.7,24.5c2.7,3.5,5.8,6.2,9.2,8.3.8.1,1.3.2,1.6.2.5,0,1.4,0,3-.3l-5.6-2.4c.8-1.8,2-3.4,3.6-4.8l-2.8-1.2c1.6-2.8,3.5-4.5,5.4-5.1l-3.1-1.4c2-4,4.8-6,8.2-6s1.5.1,2.3.3c.8.2,1.6.5,2.4,1h4.1c-1.5-.6-3.2-1.6-4.9-3-2.4,1.3-5,1.9-7.7,1.9h-1c0,0,0-2.3,0-2.3h.8c2.9,0,5.8-.7,8.5-2.3,2.5,2.7,5.1,4,7.7,4s3.2-.6,4.5-1.8l-7-6.5-11.4-1c-2.6.8-7.7,2.7-15.3,5.7H3.9c-1,2.8-1.6,5.6-1.6,8.4s.5,5.4,1.4,8.1c0,0,6.1,0,6.1,0ZM28.4,32.6h1.8c2.8,0,4.2-1.1,4.2-3.3h-4.4l-6-2.7c-1.3.8-2.3,1.7-2.9,2.6l7.4,3.5h0ZM30.8,27.1h4.1c1.5.1,2.6-.1,3.3-.6.7-.5,1.1-1.2,1.1-2.1s-.2-1.2-.7-1.9h-6.6s-4.7-2-4.7-2c-2.5.3-4.2,1.3-5.2,2.9l8.7,3.8h0ZM32.7,20.3h4.7c1.8,0,3.1-.2,4-.7.9-.5,1.3-1.2,1.3-2.2s-.3-1.2-.9-1.6-1.5-.5-2.8-.5h-5.8c-.7-.5-1.4-.8-2-1s-1.3-.4-2-.4c-2.3,0-4,1-5.1,2.9l8.5,3.5h0ZM48.8,9.8c-.4.5-.8.9-1.1,1.1h10.2c3.6,0,6.3-.3,8.1-.7,1.8-.4,2.7-1.1,2.7-1.9,0-1.9-2.9-2.9-8.8-2.9l-16.4-.4,5.2,4.8h0Z"/>
  </g>
</svg>